<svg width="276" height="95" viewBox="0 0 276 95" fill="none" xmlns="http://www.w3.org/2000/svg">
<g clip-path="url(#clip0_1_38)">
<path d="M35.481 56.5336H48.0076C44.8541 66.1363 36.3391 72.1305 24.7689 72.1305C13.1988 72.1305 0 62.2398 0 47.4961C0 32.7523 9.94693 23.0573 24.7689 23.0573C39.591 23.0573 49.7044 32.8525 49.445 47.4961C49.3776 51.3002 49.3102 51.3002 49.3102 51.3002H11.8598C13.1059 57.8596 17.8826 61.6692 24.676 61.6692C31.4695 61.6692 33.1856 59.8649 35.481 56.5336ZM36.7271 40.8388C34.7213 36.1815 30.4147 33.5132 24.676 33.5132C18.9374 33.5132 14.7291 36.1761 12.7179 40.8388H36.7271Z" fill="#2438F5"/>
<path d="M56.5036 0H67.9808V71.2731H56.5036V0Z" fill="#2438F5"/>
<path d="M130.061 23.7252H142.396L154.065 55.9625L165.733 23.7252H178.074L160 71.2768H148.14L130.067 23.7252H130.061Z" fill="#2438F5"/>
<path d="M189.79 3.6615C193.326 3.6615 196.102 6.5146 196.102 9.93831C196.102 13.362 193.331 16.313 189.79 16.313C186.248 16.313 183.477 13.5577 183.477 9.93831C183.477 6.31896 186.248 3.6615 189.79 3.6615ZM184.051 23.7256H195.528V71.2772H184.051V23.7256Z" fill="#2438F5"/>
<path d="M89.7585 71.2699C92.0813 68.607 95.5245 67.1343 99.7109 67.1343C103.897 67.1343 107.433 68.607 109.756 71.2699H122.758C119.326 62.2487 110.98 56.6783 99.8038 56.6783C88.6272 56.6783 80.227 62.2541 76.7674 71.2699H89.7585Z" fill="#2438F5"/>
<path d="M264.059 23.7155L252.581 56.6212L241.104 23.7155H219.549V20.9602C219.549 15.917 221.943 14.303 225.386 14.303C228.829 14.303 229.878 14.4932 231.698 15.542L233.513 5.5589C231.698 4.51005 228.447 3.84705 224.812 3.84705C210.657 3.84705 208.077 13.64 208.077 22.1993V23.7209H203.202V34.1823H208.077V71.2725H219.554V34.1823H232.868L245.602 70.0335C247.898 76.4081 242.733 84.5326 236.322 84.5326V94.994C252.39 94.994 255.161 82.3969 259.085 71.2725L276.011 23.7209H264.059V23.7155Z" fill="#2438F5"/>
<path d="M99.7038 38.6119C92.9103 38.6119 88.1336 34.8024 86.8875 28.243H124.467C124.467 27.243 124.467 25.9931 124.467 24.4388C124.473 9.79292 114.624 0 99.7967 0C84.9692 0 75.0277 9.70597 75.0277 24.4443C75.0277 39.1825 88.2265 49.0733 99.7967 49.0733C111.367 49.0733 119.882 43.0791 123.035 33.4763H110.509C108.213 36.8077 106.497 38.6119 99.7038 38.6119ZM99.6983 10.4559C105.437 10.4559 109.744 13.1243 111.749 17.7816H87.7401C89.7514 13.1188 93.9597 10.4559 99.6983 10.4559Z" fill="#2438F5"/>
</g>
<defs>
<clipPath id="clip0_1_38">
<rect width="276" height="95" fill="white"/>
</clipPath>
</defs>
</svg>
